<svg xmlns="http://www.w3.org/2000/svg" width="10.056" height="8.844" viewBox="0 0 10.056 8.844"><defs><style>.a{fill:#fff;}</style></defs><g transform="translate(-1310.447 -234)"><path class="a" d="M12.775,10.614l3.346-3.344a.632.632,0,1,0-.9-.892l-3.791,3.789a.631.631,0,0,0-.018.871l3.807,3.815a.632.632,0,1,0,.9-.892Z" transform="translate(1304.196 227.806)"/><path class="a" d="M12.775,10.614l3.346-3.344a.632.632,0,1,0-.9-.892l-3.791,3.789a.631.631,0,0,0-.018.871l3.807,3.815a.632.632,0,1,0,.9-.892Z" transform="translate(1299.196 227.806)"/></g></svg>