<svg xmlns="http://www.w3.org/2000/svg" width="170" height="69.56" viewBox="0 0 170 69.56"><defs><style>.a,.d{fill:#0099b1;}.b{fill:#ed7501;}.c,.e{fill:#fff;}.d,.e{fill-rule:evenodd;}</style></defs><g transform="translate(0 0)"><path class="a" d="M7.424,434.2a2.954,2.954,0,0,1-.4-.028,1.854,1.854,0,0,1-.334-.068l-.105-1.468a2.635,2.635,0,0,0,.365.074,2.244,2.244,0,0,0,.328.022.7.7,0,0,0,.618-.241,1.391,1.391,0,0,0,.173-.788V426H9.522v4.434h1.134V431.9H9.512a2.824,2.824,0,0,1-.556,1.761A1.968,1.968,0,0,1,7.424,434.2Z" transform="translate(-4.547 -364.649)"/><path class="a" d="M19.12,430.425h2.191V426h1.48v5.9H19.12Zm1.74,3.513a.976.976,0,0,1-1.153,0,.664.664,0,0,1-.241-.556.692.692,0,0,1,.235-.544.927.927,0,0,1,1.165,0,.692.692,0,0,1,.235.544.664.664,0,0,1-.241.556Zm2.277,0a.9.9,0,0,1-.578.189.927.927,0,0,1-.578-.189.664.664,0,0,1-.241-.556.7.7,0,0,1,.238-.544.927.927,0,0,1,1.168,0,.7.7,0,0,1,.232.544.664.664,0,0,1-.241.556Z" transform="translate(-13.212 -364.649)"/><path class="a" d="M40.651,430.376h.973v1.468h-1a3.517,3.517,0,0,1-.2.927,1.928,1.928,0,0,1-.47.729,2.141,2.141,0,0,1-.81.485,3.739,3.739,0,0,1-1.193.167,3.081,3.081,0,0,1-.389-.015c-.117-.015-.235-.028-.352-.046l-.362-.074-.43-.117-.105-1.477a6.539,6.539,0,0,0,.8.2,4.69,4.69,0,0,0,1.27.034,1.044,1.044,0,0,0,.392-.114.7.7,0,0,0,.263-.256,1.153,1.153,0,0,0,.13-.442H39a5.727,5.727,0,0,1-1.412-.167,3.279,3.279,0,0,1-1.14-.525,2.416,2.416,0,0,1-.766-.927,3,3,0,0,1-.278-1.347,2.8,2.8,0,0,1,.266-1.236,2.67,2.67,0,0,1,.745-.927,3.479,3.479,0,0,1,1.14-.581,4.867,4.867,0,0,1,1.446-.2h1.656Zm-3.776-1.489a1.505,1.505,0,0,0,.13.646,1.385,1.385,0,0,0,.362.467,1.585,1.585,0,0,0,.541.284,2.323,2.323,0,0,0,.667.093h.618V427.41h-.618a1.949,1.949,0,0,0-.637.105,1.755,1.755,0,0,0-.544.309,1.421,1.421,0,0,0-.377.467A1.27,1.27,0,0,0,36.875,428.887Z" transform="translate(-24.465 -364.6)"/><path class="a" d="M54.89,424.586h1.026V417.55H57.4v3.127h3.186a3.81,3.81,0,0,1,1.236.182,2.317,2.317,0,0,1,.927.6,1.968,1.968,0,0,1,.473.908,5.03,5.03,0,0,1,.136,1.2v1.017H64.5v1.468H54.89Zm2.506-2.454v2.454H61.9v-1.078a1.94,1.94,0,0,0-.068-.55,1.128,1.128,0,0,0-.216-.414.964.964,0,0,0-.371-.294,1.165,1.165,0,0,0-.519-.117Z" transform="translate(-37.928 -358.81)"/><path class="a" d="M85.36,425.049h2.191v-4.425h1.468v4.434H90.95v1.468H85.36Zm2.3-5.519a.964.964,0,0,1-1.153,0,.757.757,0,0,1,0-1.1.927.927,0,0,1,1.165,0,.757.757,0,0,1,0,1.1Zm2.277,0a.967.967,0,0,1-1.156,0,.754.754,0,0,1,0-1.1.927.927,0,0,1,1.168,0,.763.763,0,0,1,0,1.1Z" transform="translate(-58.983 -359.273)"/><path class="a" d="M102.77,424.586H103.8V417.55h2.163v1.468h-.68v7.036h-2.5Z" transform="translate(-71.013 -358.81)"/><path class="a" d="M118.82,417.55h1.468v8.5H118.82Z" transform="translate(-82.104 -358.81)"/><path class="a" d="M133.271,431.445a4.2,4.2,0,0,1-.133,1.1,2.089,2.089,0,0,1-.439.856,2.068,2.068,0,0,1-.828.553,3.64,3.64,0,0,1-1.295.2,3.119,3.119,0,0,1-.389-.015l-.352-.046-.362-.074-.43-.117-.105-1.477a6.539,6.539,0,0,0,.8.2,4.689,4.689,0,0,0,1.27.034,1.029,1.029,0,0,0,.392-.114.7.7,0,0,0,.263-.256,1.1,1.1,0,0,0,.13-.442h-.167a5.683,5.683,0,0,1-1.409-.167,3.27,3.27,0,0,1-1.143-.525,2.444,2.444,0,0,1-.766-.927,3,3,0,0,1-.278-1.347,2.762,2.762,0,0,1,.269-1.236,2.636,2.636,0,0,1,.745-.927,3.433,3.433,0,0,1,1.137-.581,4.868,4.868,0,0,1,1.446-.2h1.647Zm-3.776-2.559a1.461,1.461,0,0,0,.133.646,1.31,1.31,0,0,0,.362.467,1.569,1.569,0,0,0,.538.284,2.323,2.323,0,0,0,.667.093h.618V427.41h-.618a1.918,1.918,0,0,0-.618.105,1.736,1.736,0,0,0-.547.309,1.462,1.462,0,0,0-.377.467,1.27,1.27,0,0,0-.173.6Z" transform="translate(-88.465 -364.6)"/><path class="a" d="M162.295,431.893a7.111,7.111,0,0,1-.853-.046,3.665,3.665,0,0,1-.708-.151,2.815,2.815,0,0,1-1.1-.661,1.993,1.993,0,0,1-.544-.949,4.653,4.653,0,0,1-.158-1.236v-1.984H160.4v1.8a2.88,2.88,0,0,0,.1.8,1.116,1.116,0,0,0,.343.538,1.477,1.477,0,0,0,.68.309,4.4,4.4,0,0,0,.881.083h2.936V426H166.8v4.434h1.134V431.9Zm1.727,2.036a1.023,1.023,0,0,1-1.208,0,.782.782,0,0,1-.009-1.149.989.989,0,0,1,1.236,0,.773.773,0,0,1-.019,1.15Z" transform="translate(-109.819 -364.649)"/><path class="a" d="M187.47,430.425h2.191V426h1.468v5.9H187.47Zm1.74,3.513a.976.976,0,0,1-1.153,0,.664.664,0,0,1-.241-.556.692.692,0,0,1,.235-.544.927.927,0,0,1,1.165,0,.692.692,0,0,1,.235.544A.664.664,0,0,1,189.21,433.938Zm2.277,0a.927.927,0,0,1-.578.189.9.9,0,0,1-.578-.188.664.664,0,0,1-.241-.556.7.7,0,0,1,.238-.544.927.927,0,0,1,1.168,0,.7.7,0,0,1,.232.544A.664.664,0,0,1,191.487,433.938Z" transform="translate(-129.54 -364.649)"/><path class="a" d="M203.76,434.2a2.962,2.962,0,0,1-.411-.028,1.854,1.854,0,0,1-.334-.068l-.105-1.468a2.67,2.67,0,0,0,.368.074,2.236,2.236,0,0,0,.324.022.7.7,0,0,0,.618-.241,1.366,1.366,0,0,0,.173-.788V426h1.468v5.5a5.606,5.606,0,0,1-.114,1.236,2.129,2.129,0,0,1-.368.837,1.462,1.462,0,0,1-.649.488A2.626,2.626,0,0,1,203.76,434.2Z" transform="translate(-140.209 -364.649)"/><path class="a" d="M215.67,430.424h3.659v-1.6a1.953,1.953,0,0,0-.068-.55,1.128,1.128,0,0,0-.216-.414.927.927,0,0,0-.371-.287,1.205,1.205,0,0,0-.519-.111h-.618V426h.485a3.888,3.888,0,0,1,1.236.182,2.318,2.318,0,0,1,.927.6,1.968,1.968,0,0,1,.473.908,4.894,4.894,0,0,1,.136,1.2v1.545h1.134V431.9H215.67Z" transform="translate(-149.026 -364.648)"/><path class="a" d="M235.28,425.049h2.191v-4.425h1.468v4.434h1.931v1.468h-5.59Zm2.3-5.519a.964.964,0,0,1-1.153,0,.757.757,0,0,1,0-1.1.927.927,0,0,1,1.165,0,.757.757,0,0,1,0,1.1Zm2.277,0a.967.967,0,0,1-1.156,0,.754.754,0,0,1,0-1.1.927.927,0,0,1,1.168,0,.763.763,0,0,1,0,1.1Z" transform="translate(-162.576 -359.273)"/><path class="a" d="M252.69,424.586h1.023V417.55h1.471v7.036h1.341v1.468H252.69Z" transform="translate(-174.606 -358.81)"/><path class="a" d="M264.43,424.586h1.029V417.55h2.148v1.468h-.68v7.036h-2.5Z" transform="translate(-182.719 -358.81)"/><rect class="b" width="88.454" height="0.825" transform="translate(0 54.976)"/><path class="b" d="M69.739,8.088A.878.878,0,0,1,69.6,7.015L69.587,7,39.793,36.785a.884.884,0,0,0,1.236,1.236L70.836,8.236l-.022-.019a.881.881,0,0,1-1.075-.13Z" transform="translate(64.11 -4.838)"/><path class="c" d="M68.133,4.11l-.09-.1h0l-.161-.158h0l-.247-.25h0a.711.711,0,0,0-1,0L64.873,5.364l-28.392,28.4a1.7,1.7,0,1,1-2.4-2.4L64.237,1.208a.708.708,0,0,0,.21-.494.714.714,0,0,0-.21-.5.7.7,0,0,0-1,0L61.474,1.962h0l-28.392,28.4a3.112,3.112,0,0,0,0,4.4l1.406,1.394a5.179,5.179,0,0,0,3.09-1.381L67.1,4.972l-.074.25.42-.423.1.093Z" transform="translate(69.257 -0.004)"/><path class="c" d="M105.925,45.7l-5.952,5.948-5.562-5.562.38-.38L73.065,23.97,51.347,45.7,73.065,67.413l2.5-2.494L59.15,48.474l-2.781-2.781L73.055,29.007l16.687,16.7-8.847,8.844L75.333,48.99l3.279-3.276-5.562-5.562-5.562,5.562,8.343,8.343h0l5.3,5.293h0l5.562,5.562L73.058,78.544,40.211,45.7l-.541-.559a5.179,5.179,0,0,0,3.09-1.381L73.225,13Z" transform="translate(64.075 -8.984)"/><rect class="a" width="7.904" height="7.904" transform="translate(152.162 43.352) rotate(-44.99)"/><path class="a" d="M176.04,148.117l5.587,5.593,5.593-5.593-5.593-5.587Z" transform="translate(-30.155 -98.488)"/><path class="d" d="M271.984,315.114a1.015,1.015,0,0,0-.08.222,1.776,1.776,0,0,1-1.6,1.622,2.278,2.278,0,0,1-2.4-.76,2.046,2.046,0,0,1,.09-2.438,2.323,2.323,0,0,1,3.761.408c.1.226.151.47.229.708Z" transform="translate(-184.871 -286.558)"/><path class="e" d="M44.9,255.783c-1.023.018-2.043.022-3.065,0-.392,0-.491.127-.488.5v10.825H37.637c-1.35,0-2.7-.019-4.057,0-.386,0-.482-.111-.482-.488V256.234c0-.34-.087-.464-.445-.457-1.007.022-2.015.025-3.022,0-.4,0-.485.136-.485.5V267.1H14.931a.4.4,0,0,1-.124,0c-.423-.019-.85,0-1.27,0-.346,0-.692-.028-1.032,0a.541.541,0,0,1-.655-.445q-1.014-2.96-2.083-5.9a.5.5,0,0,1,.244-.7,6.2,6.2,0,0,1,7.215.068l.043.031,3.581-2.3a30.865,30.865,0,0,0-2.537-1.774,8.98,8.98,0,0,0-7.339-.927,15.19,15.19,0,0,0-5.639,3.4c-.077.068-.065.309,0,.442.976,2.528,1.968,5.049,2.951,7.577.059.158.108.309.179.535H7.036a3.365,3.365,0,0,0-2.642,2.735,2.472,2.472,0,0,0-.049.4.019.019,0,0,0,0,.019h0q0,.309.028.618h0a11.7,11.7,0,0,0,2.188,6.106c.871-.411,1.724-.8,2.574-1.2.507-.235.51-.235.247-.714a10.224,10.224,0,0,1-.643-1.434,6.489,6.489,0,0,1-.38-2.033c0-.55,0-.553.565-.553h15.4c4.573,0,9.147-.022,13.72-.025H42.3a3.377,3.377,0,0,0,3.016-3.257V256.17C45.316,255.876,45.208,255.78,44.9,255.783Z" transform="translate(-3 -246.318)"/><path class="e" d="M192.622,255.029v.213a3.374,3.374,0,0,1-3.065,3.263h-.664q-2.883-.019-5.769-.015c-3.09,0-6.2.019-9.307.025H158.041A3.4,3.4,0,0,1,155,255.264V237.113c0-.494.019-.513.519-.513h2.9c.522,0,.525,0,.525.535v16.035c0,.309.022.618,0,.912-.034.383.071.544.5.519.754-.037,1.508,0,2.262,0h14.523V243.769c0-.519,0-.522.531-.522.983,0,1.965.019,2.945,0,.4,0,.488.13.485.5v10.225c0,.6,0,.6.618.6h7.87V243.75c0-.371.09-.513.485-.5,1.02.025,2.039.022,3.062,0,.309,0,.414.09.414.408Q192.616,249.34,192.622,255.029Z" transform="translate(-107.104 -233.775)"/><path class="d" d="M125.572,316.651a2.075,2.075,0,0,1-2.2-2.707,2.252,2.252,0,0,1,2.373-1.471,2.124,2.124,0,0,1,2.03,2.812A2.162,2.162,0,0,1,125.572,316.651Z" transform="translate(-85.179 -286.201)"/><path class="d" d="M224.746,241.954a2.13,2.13,0,0,1-2.219-1.489,2.089,2.089,0,0,1,1.941-2.682,2.286,2.286,0,0,1,2.472,1.384A2.1,2.1,0,0,1,224.746,241.954Z" transform="translate(-153.704 -234.587)"/><path class="d" d="M94.929,317.017a2.027,2.027,0,0,1-2.107-1.353,2.09,2.09,0,0,1,2.472-2.636,1.988,1.988,0,0,1,1.78,2.565A2.04,2.04,0,0,1,94.929,317.017Z" transform="translate(-64.084 -286.567)"/><path class="d" d="M76.078,317.005a1.949,1.949,0,0,1-2.1-2.506A2.161,2.161,0,0,1,76.35,313a2.031,2.031,0,0,1,1.894,2.5,1.922,1.922,0,0,1-1.808,1.511Z" transform="translate(-51.073 -286.555)"/><path class="d" d="M250.9,317.025a1.967,1.967,0,0,1-2.1-2.593,2.166,2.166,0,0,1,2.24-1.418,2.012,2.012,0,0,1,2.036,2.08,1.882,1.882,0,0,1-1.854,1.931Z" transform="translate(-171.846 -286.575)"/><path class="c" d="M11.846,335h3.275l-5.627,9.944V350.9H6.652v-5.961L1,335H4.275l3.785,7.157Z" transform="translate(-0.691 -301.769)"/><path class="c" d="M50.35,361.117a9.89,9.89,0,0,1-1.99-.195,5.277,5.277,0,0,1-1.669-.618,3.4,3.4,0,0,1-1.146-1.128,3.2,3.2,0,0,1-.43-1.715,3.38,3.38,0,0,1,.38-1.628,3.418,3.418,0,0,1,1.06-1.177,4.868,4.868,0,0,1,1.628-.717,8.55,8.55,0,0,1,2.067-.238c.309,0,.618,0,.992.031a11.522,11.522,0,0,1,1.165.127V353.7a1.273,1.273,0,0,0-.7-1.273,4.326,4.326,0,0,0-1.854-.334,6.581,6.581,0,0,0-.927.077c-.34.056-.683.127-1.029.216s-.686.2-1.01.309-.618.241-.9.371l.352-2.8a7.977,7.977,0,0,1,1.706-.578,9.518,9.518,0,0,1,2.2-.247,7.7,7.7,0,0,1,1.959.238,4.23,4.23,0,0,1,1.545.745,3.4,3.4,0,0,1,1.041,1.353,5.049,5.049,0,0,1,.374,2.039v6.43a12.286,12.286,0,0,1-2.314.637,13.982,13.982,0,0,1-2.491.235Zm2.058-5.015a8.514,8.514,0,0,0-.9-.167,7.1,7.1,0,0,0-.961-.068,6.622,6.622,0,0,0-.989.068,2.915,2.915,0,0,0-.813.235,1.443,1.443,0,0,0-.559.442,1.063,1.063,0,0,0-.207.664,1.078,1.078,0,0,0,.7,1.069,4.274,4.274,0,0,0,1.718.309,7.044,7.044,0,0,0,1.038-.08,5.35,5.35,0,0,0,.98-.235Z" transform="translate(-31.173 -311.746)"/><path class="c" d="M87.19,350.041c.43-.08.874-.155,1.332-.229s.905-.13,1.344-.176l1.236-.117c.392-.031.739-.049,1.038-.049a9.7,9.7,0,0,1,1.99.2,4.073,4.073,0,0,1,1.619.7,3.516,3.516,0,0,1,1.088,1.394,5.383,5.383,0,0,1,.4,2.234v6.9H94.495v-6.118a2.161,2.161,0,0,0-2.472-2.627,8.677,8.677,0,0,0-.98.059c-.352.04-.726.09-1.119.158V360.9H87.19Z" transform="translate(-60.247 -311.767)"/><path class="c" d="M132.59,361.145a9.885,9.885,0,0,1-1.99-.195,5.277,5.277,0,0,1-1.669-.618,3.4,3.4,0,0,1-1.146-1.128,3.2,3.2,0,0,1-.43-1.715,3.381,3.381,0,0,1,.38-1.628,3.418,3.418,0,0,1,1.06-1.177,4.868,4.868,0,0,1,1.628-.7,8.553,8.553,0,0,1,2.067-.238c.309,0,.618,0,.992.031a11.513,11.513,0,0,1,1.165.127v-.158a1.273,1.273,0,0,0-.7-1.273,4.326,4.326,0,0,0-1.854-.334,6.586,6.586,0,0,0-.927.077c-.34.056-.683.127-1.029.216s-.686.2-1.01.309-.618.241-.9.371l.352-2.8a7.973,7.973,0,0,1,1.706-.578,9.517,9.517,0,0,1,2.2-.247,7.742,7.742,0,0,1,1.962.238,4.24,4.24,0,0,1,1.545.745,3.4,3.4,0,0,1,1.029,1.353,5.049,5.049,0,0,1,.374,2.039v6.43a12.284,12.284,0,0,1-2.314.637A13.973,13.973,0,0,1,132.59,361.145Zm2.07-5.015a8.506,8.506,0,0,0-.9-.167,7.11,7.11,0,0,0-.961-.068,6.618,6.618,0,0,0-.989.068,2.917,2.917,0,0,0-.813.235,1.444,1.444,0,0,0-.559.442,1.063,1.063,0,0,0-.207.664,1.078,1.078,0,0,0,.7,1.069,4.282,4.282,0,0,0,1.718.309,7.039,7.039,0,0,0,1.038-.08,5.347,5.347,0,0,0,.98-.235Z" transform="translate(-88 -311.774)"/><path class="c" d="M172.153,339.635c.38-.053.726-.09,1.041-.117s.6-.04.862-.04a6.972,6.972,0,0,1,2.559.451,5.9,5.9,0,0,1,1.962,1.236,5.615,5.615,0,0,1,1.255,1.854,6.3,6.3,0,0,1,0,4.6,5.253,5.253,0,0,1-1.255,1.854,5.8,5.8,0,0,1-2.021,1.236,7.781,7.781,0,0,1-2.725.442,16.414,16.414,0,0,1-4.431-.569V335h2.744Zm0,8.609a7.793,7.793,0,0,0,1.706.216,4.078,4.078,0,0,0,2.589-.754,2.825,2.825,0,0,0,.961-2.364,2.871,2.871,0,0,0-.961-2.392,3.977,3.977,0,0,0-2.589-.785,6.558,6.558,0,0,0-.8.049,6.023,6.023,0,0,0-.9.185Z" transform="translate(-117.054 -301.769)"/><path class="c" d="M216.195,358.408a6.016,6.016,0,0,0,.927-.077,8.2,8.2,0,0,0,.927-.207,5.741,5.741,0,0,0,.816-.309,2.229,2.229,0,0,0,.587-.393l1.214,2.451a10.766,10.766,0,0,1-2.039.853,9.4,9.4,0,0,1-2.781.362,6.431,6.431,0,0,1-2.42-.442,5.841,5.841,0,0,1-1.922-1.236,5.531,5.531,0,0,1-1.267-1.854,6.155,6.155,0,0,1,0-4.657,5.584,5.584,0,0,1,3.118-3.059,6.276,6.276,0,0,1,4.635.019,5.019,5.019,0,0,1,1.836,1.326A6.1,6.1,0,0,1,221,353.309a8.1,8.1,0,0,1,.352,2.843h-8.745a2.614,2.614,0,0,0,1.146,1.687,3.99,3.99,0,0,0,2.163.55Zm1.273-6.038a3.319,3.319,0,0,0-1.882-.51,3.029,3.029,0,0,0-1.882.581,2.744,2.744,0,0,0-1.02,1.459h5.766a2.336,2.336,0,0,0-.983-1.53Z" transform="translate(-144.956 -311.722)"/><path class="c" d="M257.98,361.145a9.887,9.887,0,0,1-1.99-.195,5.231,5.231,0,0,1-1.666-.618,3.374,3.374,0,0,1-1.149-1.128,3.2,3.2,0,0,1-.43-1.715,3.288,3.288,0,0,1,1.44-2.806,4.866,4.866,0,0,1,1.628-.7,8.55,8.55,0,0,1,2.067-.238c.309,0,.618,0,.992.031a11.514,11.514,0,0,1,1.165.127v-.158a1.273,1.273,0,0,0-.7-1.273,4.327,4.327,0,0,0-1.854-.334,6.587,6.587,0,0,0-.927.077c-.34.056-.683.127-1.029.216s-.683.2-1.01.309a9.432,9.432,0,0,0-.9.371l.352-2.8a7.977,7.977,0,0,1,1.706-.578,9.518,9.518,0,0,1,2.2-.247,7.741,7.741,0,0,1,1.962.238,4.24,4.24,0,0,1,1.545.745A3.4,3.4,0,0,1,262.4,351.8a5,5,0,0,1,.374,2.039v6.43a12.284,12.284,0,0,1-2.314.637A13.95,13.95,0,0,1,257.98,361.145Zm2.058-5.015a8.587,8.587,0,0,0-.9-.167,7.161,7.161,0,0,0-.961-.068,6.646,6.646,0,0,0-.992.068,2.916,2.916,0,0,0-.813.235,1.467,1.467,0,0,0-.559.442,1.063,1.063,0,0,0-.207.664,1.075,1.075,0,0,0,.7,1.069,4.258,4.258,0,0,0,1.715.309,7.043,7.043,0,0,0,1.038-.08,5.351,5.351,0,0,0,.98-.235Z" transform="translate(-174.644 -311.774)"/></g></svg>