<svg xmlns="http://www.w3.org/2000/svg" width="99.066" height="156.626" viewBox="0 0 99.066 156.626">
  <g id="Layer_2" data-name="Layer 2" transform="translate(0 0.003)">
    <g id="Layer_1" data-name="Layer 1" transform="translate(0 -0.003)">
      <path id="Path_1504" data-name="Path 1504" d="M14.7,901.075a3.752,3.752,0,0,1-.458-.028,2.313,2.313,0,0,1-.375-.078l-.117-1.643a3.775,3.775,0,0,0,.41.081,2.621,2.621,0,0,0,.365.025.786.786,0,0,0,.686-.271,1.543,1.543,0,0,0,.2-.881v-6.4h1.643v4.959h1.269v1.653H17.038a3.146,3.146,0,0,1-.622,1.974A2.2,2.2,0,0,1,14.7,901.075Z" transform="translate(-11.477 -744.458)" fill="#00a7bf"/>
      <path id="Path_1505" data-name="Path 1505" d="M40,896.889h2.46V891.93H44.1v6.612H40Zm1.95,3.936a1.093,1.093,0,0,1-1.293,0,.744.744,0,0,1-.264-.618.775.775,0,0,1,.264-.61,1.022,1.022,0,0,1,1.3,0,.775.775,0,0,1,.264.61.744.744,0,0,1-.269.618Zm2.549,0a1.093,1.093,0,0,1-1.293,0,.744.744,0,0,1-.264-.618.775.775,0,0,1,.264-.61,1.03,1.03,0,0,1,1.309,0,.785.785,0,0,1,.258.61.744.744,0,0,1-.269.618Z" transform="translate(-33.388 -744.5)" fill="#00a7bf"/>
      <path id="Path_1506" data-name="Path 1506" d="M79.989,896.846h1.093V898.5H79.965a3.95,3.95,0,0,1-.223,1.051,2.149,2.149,0,0,1-.527.817,2.408,2.408,0,0,1-.906.529,4.206,4.206,0,0,1-1.337.187,3.526,3.526,0,0,1-.435-.017c-.132-.016-.264-.03-.393-.053s-.264-.051-.407-.083l-.486-.137-.117-1.653a6.762,6.762,0,0,0,.893.223,4.935,4.935,0,0,0,.826.071,5.3,5.3,0,0,0,.6-.03,1.194,1.194,0,0,0,.44-.129.78.78,0,0,0,.294-.288,1.276,1.276,0,0,0,.147-.5h-.188a6.423,6.423,0,0,1-1.572-.188,3.7,3.7,0,0,1-1.279-.589,2.8,2.8,0,0,1-.869-1.023,3.385,3.385,0,0,1-.311-1.509,3.107,3.107,0,0,1,.311-1.39,2.962,2.962,0,0,1,.826-1.033,3.841,3.841,0,0,1,1.273-.651,5.439,5.439,0,0,1,1.622-.23H80Zm-4.227-1.666a1.688,1.688,0,0,0,.145.722,1.506,1.506,0,0,0,.407.522,1.77,1.77,0,0,0,.6.317,2.592,2.592,0,0,0,.747.1h.693v-3.322h-.693a2.173,2.173,0,0,0-.711.117,1.938,1.938,0,0,0-.612.331,1.679,1.679,0,0,0-.422.522A1.463,1.463,0,0,0,75.762,895.179Z" transform="translate(-61.863 -744.457)" fill="#00a7bf"/>
      <path id="Path_1507" data-name="Path 1507" d="M114.92,882.14h1.157v-7.88h1.643v3.5H121.3a4.311,4.311,0,0,1,1.4.207,2.592,2.592,0,0,1,1.045.674,2.234,2.234,0,0,1,.529,1.017,5.63,5.63,0,0,1,.152,1.344v1.139h1.269v1.653H114.92Zm2.8-2.747v2.747h5.063v-1.208a2.211,2.211,0,0,0-.078-.616,1.267,1.267,0,0,0-.24-.465,1.157,1.157,0,0,0-.417-.331,1.311,1.311,0,0,0-.582-.129Z" transform="translate(-95.925 -729.751)" fill="#00a7bf"/>
      <path id="Path_1508" data-name="Path 1508" d="M178.73,883.325h2.455v-4.959h1.643v4.959h2.162v1.653h-6.26Zm2.572-6.182a1.073,1.073,0,0,1-1.293,0,.845.845,0,0,1,0-1.233,1.038,1.038,0,0,1,1.3,0,.845.845,0,0,1,0,1.233Zm2.547,0a1.071,1.071,0,0,1-1.291,0,.843.843,0,0,1,0-1.233,1.049,1.049,0,0,1,1.311,0,.851.851,0,0,1-.013,1.233Z" transform="translate(-149.187 -730.936)" fill="#00a7bf"/>
      <path id="Path_1509" data-name="Path 1509" d="M215.17,882.14h1.157v-7.88h2.4v1.653h-.764v7.88h-2.8Z" transform="translate(-179.604 -729.751)" fill="#00a7bf"/>
      <path id="Path_1510" data-name="Path 1510" d="M248.78,874.26h1.653v9.524H248.78Z" transform="translate(-207.659 -729.751)" fill="#00a7bf"/>
      <path id="Path_1511" data-name="Path 1511" d="M273.835,898.052a4.837,4.837,0,0,1-.147,1.228,2.357,2.357,0,0,1-.5.957,2.282,2.282,0,0,1-.929.621,4.072,4.072,0,0,1-1.45.223,3.566,3.566,0,0,1-.435-.016c-.134-.017-.264-.03-.393-.053s-.264-.051-.4-.083l-.481-.129-.117-1.653a6.762,6.762,0,0,0,.893.223,4.916,4.916,0,0,0,.826.071,5.3,5.3,0,0,0,.6-.03,1.216,1.216,0,0,0,.441-.129.786.786,0,0,0,.293-.288,1.246,1.246,0,0,0,.147-.5h-.188a6.4,6.4,0,0,1-1.579-.187,3.722,3.722,0,0,1-1.281-.589,2.772,2.772,0,0,1-.856-1.026,3.362,3.362,0,0,1-.312-1.509,3.11,3.11,0,0,1,.3-1.387,2.938,2.938,0,0,1,.826-1.033,3.864,3.864,0,0,1,1.274-.651,5.418,5.418,0,0,1,1.62-.23h1.856Zm-4.228-2.865a1.687,1.687,0,0,0,.147.722,1.5,1.5,0,0,0,.4.522,1.764,1.764,0,0,0,.605.317,2.58,2.58,0,0,0,.745.1h.693v-3.322h-.693a2.176,2.176,0,0,0-.711.117,1.93,1.93,0,0,0-.61.331,1.652,1.652,0,0,0-.423.522A1.463,1.463,0,0,0,269.607,895.188Z" transform="translate(-223.67 -744.465)" fill="#00a7bf"/>
      <path id="Path_1512" data-name="Path 1512" d="M336.538,898.534a7.633,7.633,0,0,1-.957-.053,4.18,4.18,0,0,1-.793-.165,3.035,3.035,0,0,1-.661-.3,3.289,3.289,0,0,1-.57-.44,2.235,2.235,0,0,1-.61-1.063,5.23,5.23,0,0,1-.177-1.369V892.92h1.645v2.02a3.159,3.159,0,0,0,.111.9,1.256,1.256,0,0,0,.382.6,1.669,1.669,0,0,0,.764.354,4.9,4.9,0,0,0,.992.093h3.288V891.93h1.645v4.959h1.268v1.653Zm1.932,2.279a1.134,1.134,0,0,1-1.35,0,.778.778,0,0,1-.289-.661.793.793,0,0,1,.276-.628,1.1,1.1,0,0,1,1.375,0,.794.794,0,0,1,.276.628A.782.782,0,0,1,338.471,900.813Z" transform="translate(-277.765 -744.5)" fill="#00a7bf"/>
      <path id="Path_1513" data-name="Path 1513" d="M392.52,896.889h2.453V891.93h1.645v6.612h-4.1Zm1.949,3.936a1.093,1.093,0,0,1-1.293,0,.744.744,0,0,1-.269-.623.775.775,0,0,1,.264-.61,1.023,1.023,0,0,1,1.3,0,.778.778,0,0,1,.263.61A.744.744,0,0,1,394.469,900.825Zm2.549,0a1.093,1.093,0,0,1-1.293,0,.744.744,0,0,1-.269-.623.775.775,0,0,1,.264-.61,1.03,1.03,0,0,1,1.309,0,.785.785,0,0,1,.258.61A.744.744,0,0,1,397.018,900.825Z" transform="translate(-327.639 -744.5)" fill="#00a7bf"/>
      <path id="Path_1514" data-name="Path 1514" d="M425.792,901.075a3.751,3.751,0,0,1-.458-.028,2.375,2.375,0,0,1-.377-.078l-.117-1.643a3.883,3.883,0,0,0,.412.081,2.6,2.6,0,0,0,.364.025.789.789,0,0,0,.688-.271,1.545,1.545,0,0,0,.193-.881v-6.4h1.645v6.165a6.289,6.289,0,0,1-.129,1.369,2.392,2.392,0,0,1-.412.939,1.666,1.666,0,0,1-.727.547A2.956,2.956,0,0,1,425.792,901.075Z" transform="translate(-354.617 -744.458)" fill="#00a7bf"/>
      <path id="Path_1515" data-name="Path 1515" d="M451.56,896.769h4.1v-1.8a2.218,2.218,0,0,0-.078-.617,1.287,1.287,0,0,0-.24-.463,1.1,1.1,0,0,0-.418-.331,1.366,1.366,0,0,0-.58-.122h-.706v-1.653h.54a4.357,4.357,0,0,1,1.4.2,2.576,2.576,0,0,1,1.045.676,2.234,2.234,0,0,1,.529,1.015,5.643,5.643,0,0,1,.152,1.346v1.726h1.273v1.653H451.56Z" transform="translate(-376.921 -744.38)" fill="#00a7bf"/>
      <path id="Path_1516" data-name="Path 1516" d="M492.62,883.32h2.455v-4.959h1.645v4.959h2.16v1.653h-6.26Zm2.574-6.182a1.072,1.072,0,0,1-1.293,0,.848.848,0,0,1,0-1.233,1.039,1.039,0,0,1,1.3,0,.757.757,0,0,1,.264.6.767.767,0,0,1-.276.63Zm2.547,0a1.071,1.071,0,0,1-1.291,0,.843.843,0,0,1,0-1.233.957.957,0,0,1,.661-.23.945.945,0,0,1,.661.23.849.849,0,0,1-.012,1.233Z" transform="translate(-411.194 -730.931)" fill="#00a7bf"/>
      <path id="Path_1517" data-name="Path 1517" d="M529.07,882.14h1.157v-7.88h1.641v7.88h1.5v1.653h-4.3Z" transform="translate(-441.619 -729.751)" fill="#00a7bf"/>
      <path id="Path_1518" data-name="Path 1518" d="M553.66,882.14h1.157v-7.88h2.407v1.653h-.762v7.88h-2.8Z" transform="translate(-462.144 -729.751)" fill="#00a7bf"/>
      <rect id="Rectangle_212" data-name="Rectangle 212" width="99.066" height="0.926" transform="translate(0 140.294)" fill="#ed7501"/>
      <path id="Path_1519" data-name="Path 1519" d="M116.43,15.815a.979.979,0,0,1-.152-1.2l-.02-.023L82.9,47.959a.992.992,0,0,0,1.4,1.4l33.368-33.366-.025-.023A.992.992,0,0,1,116.43,15.815Z" transform="translate(-68.991 -12.178)" fill="#ed7501"/>
      <path id="Path_1520" data-name="Path 1520" d="M107.637,4.6l-.1-.106h0l-.179-.175h0l-.279-.279h0a.792.792,0,0,0-1.119,0L104,6,72.193,37.812a1.9,1.9,0,0,1-2.686-2.693L103.276,1.348A.8.8,0,0,0,103.5.793a.8.8,0,0,0-.235-.564.785.785,0,0,0-1.114,0L100.2,2.193h-.01L68.386,34a3.486,3.486,0,0,0,0,4.929l1.572,1.565a5.807,5.807,0,0,0,3.471-1.549L106.488,5.557l-.083.281.469-.473.107.1Z" transform="translate(-56.231 0.003)" fill="#0e5781"/>
      <path id="Path_1521" data-name="Path 1521" d="M157.258,63.8l-6.666,6.665-6.236-6.235.428-.43L120.454,39.471,96.131,63.8,120.454,88.13l2.81-2.8-18.4-18.417L101.758,63.8l18.7-18.7,18.7,18.7-9.908,9.908-6.236-6.23,3.665-3.678-6.225-6.24L114.226,63.8l9.347,9.351v.012l5.916,5.936h0l6.235,6.233L120.454,100.6l-36.8-36.8-.607-.62a5.807,5.807,0,0,0,3.471-1.549L120.633,27.18Z" transform="translate(-69.322 -22.687)" fill="#0e5781"/>
      <path id="Path_1522" data-name="Path 1522" d="M411.12,262.13l6.26,6.26,6.261-6.26-6.261-6.26Z" transform="translate(-343.165 -213.576)" fill="#00a7bf"/>
      <path id="Path_1523" data-name="Path 1523" d="M368.58,304.68l6.258,6.261,6.263-6.261-6.263-6.26Z" transform="translate(-307.656 -249.093)" fill="#00a7bf"/>
      <path id="Path_1524" data-name="Path 1524" d="M565.143,657.723a1.021,1.021,0,0,0-.089.25,1.993,1.993,0,0,1-1.79,1.818,2.559,2.559,0,0,1-2.689-.85,2.292,2.292,0,0,1,.1-2.729,2.6,2.6,0,0,1,4.212.456,7.488,7.488,0,0,1,.256.792Z" transform="translate(-467.579 -547.022)" fill="#00a7bf" fill-rule="evenodd"/>
      <path id="Path_1525" data-name="Path 1525" d="M54.517,534.666c-1.144.02-2.289.026-3.431,0-.44-.01-.549.142-.547.562q.015,4.521.008,9.037v3.084H46.389c-1.514,0-3.031-.018-4.546.01-.435,0-.541-.126-.539-.549.018-3.879,0-7.755.018-11.632,0-.382-.1-.519-.5-.512-1.129.023-2.258.028-3.385,0-.445-.012-.542.149-.542.564.015,3.833.01,7.665.01,11.494v.622H20.981a.525.525,0,0,1-.139.01c-.471-.02-.949,0-1.422,0-.388,0-.775-.031-1.157,0a.6.6,0,0,1-.732-.5q-1.139-3.314-2.331-6.612a.56.56,0,0,1,.273-.788,6.932,6.932,0,0,1,8.078.076c.018.013.035.023.05.036L27.612,537a34.361,34.361,0,0,0-2.84-1.984,10.043,10.043,0,0,0-8.22-1.04,17.057,17.057,0,0,0-6.316,3.8c-.088.074-.071.347-.017.5q1.641,4.248,3.306,8.486c.066.177.121.359.2.6H12.113a3.779,3.779,0,0,0-2.962,3.051,3.14,3.14,0,0,0-.053.451.021.021,0,0,0,0,.02h0c0,.23.015.456.03.684v.01a13.121,13.121,0,0,0,2.45,6.838c.974-.453,1.932-.894,2.886-1.332.565-.263.569-.266.276-.8a11.49,11.49,0,0,1-.721-1.6,7.187,7.187,0,0,1-.425-2.276c-.013-.617,0-.62.633-.62h17.24c5.124,0,10.248-.025,15.372-.028q1.947,0,3.894.012h.873a3.785,3.785,0,0,0,3.379-3.65V535.132C54.985,534.768,54.866,534.661,54.517,534.666Z" transform="translate(-7.592 -445.344)" fill="#0e5781" fill-rule="evenodd"/>
      <path id="Path_1526" data-name="Path 1526" d="M366.735,515.888v.236a3.785,3.785,0,0,1-3.433,3.658h-.739q-3.233-.015-6.463-.015c-3.471,0-6.942.02-10.425.028H328.156l-.149-.013h0a3.787,3.787,0,0,1-3.4-3.646v-.286a.023.023,0,0,0,0-.015q.015-10.018.008-20.042c0-.554.023-.574.582-.574h3.253c.587,0,.59,0,.59.6v17.954c0,.331.023.683,0,1.023-.036.428.081.607.559.582.843-.043,1.688-.01,2.532-.01h16.283V503.283c0-.582,0-.583.6-.583,1.1,0,2.2.02,3.306-.01.441-.012.545.144.542.56-.012,3.818,0,7.635,0,11.453,0,.671,0,.671.678.671h8.794V503.247c0-.417.1-.575.544-.564,1.141.028,2.284.021,3.428,0,.352,0,.464.1.464.458Q366.727,509.514,366.735,515.888Z" transform="translate(-270.954 -413.363)" fill="#0e5781" fill-rule="evenodd"/>
      <path id="Path_1527" data-name="Path 1527" d="M260.687,658.9a2.324,2.324,0,0,1-2.466-3.032,2.519,2.519,0,0,1,2.656-1.653,2.372,2.372,0,0,1,2.273,3.141A2.409,2.409,0,0,1,260.687,658.9Z" transform="translate(-215.446 -546.076)" fill="#00a7bf" fill-rule="evenodd"/>
      <path id="Path_1528" data-name="Path 1528" d="M468.363,502.521a2.389,2.389,0,0,1-2.488-1.668,2.342,2.342,0,0,1,2.165-3.007,2.565,2.565,0,0,1,2.769,1.55A2.341,2.341,0,0,1,468.363,502.521Z" transform="translate(-388.796 -415.549)" fill="#00a7bf" fill-rule="evenodd"/>
      <path id="Path_1529" data-name="Path 1529" d="M196.626,659.844a2.267,2.267,0,0,1-2.359-1.517,2.333,2.333,0,0,1,2.75-2.952,2.243,2.243,0,1,1-.392,4.469Z" transform="translate(-162.08 -547.02)" fill="#00a7bf" fill-rule="evenodd"/>
      <path id="Path_1530" data-name="Path 1530" d="M157.18,659.753a2.192,2.192,0,0,1-2.349-2.81,2.426,2.426,0,0,1,2.655-1.683,2.271,2.271,0,0,1,2.119,2.8,2.147,2.147,0,0,1-2.025,1.689C157.439,659.761,157.312,659.753,157.18,659.753Z" transform="translate(-129.174 -546.937)" fill="#00a7bf" fill-rule="evenodd"/>
      <path id="Path_1531" data-name="Path 1531" d="M523.18,659.828a2.2,2.2,0,0,1-2.355-2.9,2.424,2.424,0,0,1,2.509-1.588,2.254,2.254,0,0,1,2.279,2.331,2.106,2.106,0,0,1-2.078,2.16C523.416,659.834,523.3,659.828,523.18,659.828Z" transform="translate(-434.642 -547.01)" fill="#00a7bf" fill-rule="evenodd"/>
      <path id="Path_1532" data-name="Path 1532" d="M14.266,701.43h3.666l-6.3,11.134v6.676H8.444v-6.676L2.12,701.43H5.788l4.246,8.015Z" transform="translate(-1.77 -585.489)" fill="#0e5781"/>
      <path id="Path_1533" data-name="Path 1533" d="M100.314,744.785a11.092,11.092,0,0,1-2.23-.218,5.951,5.951,0,0,1-1.866-.7,3.762,3.762,0,0,1-1.284-1.265,3.574,3.574,0,0,1-.484-1.921,3.665,3.665,0,0,1,1.615-3.141,5.42,5.42,0,0,1,1.818-.79,9.568,9.568,0,0,1,2.314-.264q.506,0,1.109.033a12.717,12.717,0,0,1,1.307.144v-.177a1.43,1.43,0,0,0-.79-1.428,4.812,4.812,0,0,0-2.064-.372,6.85,6.85,0,0,0-1.055.088,10.927,10.927,0,0,0-1.157.241c-.387.1-.765.22-1.131.352s-.7.271-1.01.417l.4-3.141a8.865,8.865,0,0,1,1.911-.648,10.657,10.657,0,0,1,2.46-.274,8.718,8.718,0,0,1,2.2.263,4.809,4.809,0,0,1,1.757.835,3.855,3.855,0,0,1,1.157,1.516,5.646,5.646,0,0,1,.417,2.284v7.2a13.951,13.951,0,0,1-2.592.714A15.716,15.716,0,0,1,100.314,744.785Zm2.306-5.62a9.449,9.449,0,0,0-1.01-.187,8.105,8.105,0,0,0-1.076-.076,7.543,7.543,0,0,0-1.109.076,3.282,3.282,0,0,0-.912.264,1.635,1.635,0,0,0-.625.5,1.312,1.312,0,0,0,.549,1.944,4.809,4.809,0,0,0,1.921.331,7.831,7.831,0,0,0,1.165-.088,5.958,5.958,0,0,0,1.1-.263Z" transform="translate(-78.836 -610.77)" fill="#0e5781"/>
      <path id="Path_1534" data-name="Path 1534" d="M182.508,732.355c.484-.088.98-.165,1.488-.253s1.013-.146,1.5-.2.955-.1,1.4-.132.826-.055,1.157-.055a10.752,10.752,0,0,1,2.228.22,4.583,4.583,0,0,1,1.818.79,3.949,3.949,0,0,1,1.218,1.559,6.078,6.078,0,0,1,.45,2.5v7.731h-3.074v-6.851a2.429,2.429,0,0,0-2.767-2.941,9.786,9.786,0,0,0-1.1.066q-.592.066-1.253.175v9.554H182.5Z" transform="translate(-152.334 -610.771)" fill="#0e5781"/>
      <path id="Path_1535" data-name="Path 1535" d="M272.5,744.785a11.088,11.088,0,0,1-2.23-.218,5.95,5.95,0,0,1-1.866-.7,3.778,3.778,0,0,1-1.284-1.264,3.574,3.574,0,0,1-.484-1.921,3.676,3.676,0,0,1,1.615-3.141,5.433,5.433,0,0,1,1.818-.79,9.571,9.571,0,0,1,2.314-.264q.5,0,1.109.033a12.671,12.671,0,0,1,1.306.144v-.177a1.429,1.429,0,0,0-.79-1.428,4.813,4.813,0,0,0-2.064-.372,6.835,6.835,0,0,0-1.055.088,10.941,10.941,0,0,0-1.157.241q-.582.154-1.132.352c-.365.131-.7.271-1.01.417l.4-3.141a8.9,8.9,0,0,1,1.911-.648,10.674,10.674,0,0,1,2.46-.274,8.71,8.71,0,0,1,2.2.263,4.809,4.809,0,0,1,1.745.835,3.854,3.854,0,0,1,1.157,1.516,5.646,5.646,0,0,1,.417,2.284v7.2a13.96,13.96,0,0,1-2.582.714,15.707,15.707,0,0,1-2.788.251Zm2.306-5.62a9.48,9.48,0,0,0-1.01-.187,8.084,8.084,0,0,0-1.076-.076,7.542,7.542,0,0,0-1.109.076,3.255,3.255,0,0,0-.911.265,1.629,1.629,0,0,0-.626.5,1.312,1.312,0,0,0,.549,1.944,4.811,4.811,0,0,0,1.922.331,7.8,7.8,0,0,0,1.157-.088,5.958,5.958,0,0,0,1.1-.263Z" transform="translate(-222.565 -610.77)" fill="#0e5781"/>
      <path id="Path_1536" data-name="Path 1536" d="M357.808,706.612q.635-.088,1.157-.132t.965-.043a7.767,7.767,0,0,1,2.866.506,6.5,6.5,0,0,1,2.2,1.393,6.2,6.2,0,0,1,1.4,2.086,7.033,7.033,0,0,1,.012,5.151,5.885,5.885,0,0,1-1.4,2.064,6.521,6.521,0,0,1-2.263,1.374,8.8,8.8,0,0,1-3.053.5,18.421,18.421,0,0,1-4.959-.636V701.43h3.076Zm0,9.642a8.761,8.761,0,0,0,1.909.241,4.584,4.584,0,0,0,2.9-.845,3.136,3.136,0,0,0,1.076-2.645,3.258,3.258,0,0,0-1.076-2.679,4.445,4.445,0,0,0-2.9-.879,7.308,7.308,0,0,0-.9.056,6.677,6.677,0,0,0-1.01.208Z" transform="translate(-296.096 -585.489)" fill="#0e5781"/>
      <path id="Path_1537" data-name="Path 1537" d="M446.3,741.759a6.255,6.255,0,0,0,1.022-.088,8.908,8.908,0,0,0,1.033-.23,6.245,6.245,0,0,0,.911-.341,2.359,2.359,0,0,0,.661-.44l1.362,2.746a12.366,12.366,0,0,1-2.293.955,10.56,10.56,0,0,1-3.119.4,7.271,7.271,0,0,1-2.712-.5,6.588,6.588,0,0,1-2.149-1.374,6.194,6.194,0,0,1-1.417-2.074,6.926,6.926,0,0,1,.012-5.217,6.261,6.261,0,0,1,3.491-3.427,6.777,6.777,0,0,1,2.559-.483,6.677,6.677,0,0,1,2.625.506,5.558,5.558,0,0,1,2.053,1.488,6.763,6.763,0,0,1,1.322,2.384,9.123,9.123,0,0,1,.4,3.185h-9.8a2.934,2.934,0,0,0,1.284,1.888,4.472,4.472,0,0,0,2.426.615ZM447.733,735a3.719,3.719,0,0,0-2.107-.572,3.392,3.392,0,0,0-2.109.65,3.086,3.086,0,0,0-1.142,1.635h6.461A2.6,2.6,0,0,0,447.733,735Z" transform="translate(-366.52 -610.753)" fill="#0e5781"/>
      <path id="Path_1538" data-name="Path 1538" d="M535.044,744.785a11.087,11.087,0,0,1-2.23-.218,5.951,5.951,0,0,1-1.866-.7,3.777,3.777,0,0,1-1.284-1.264,3.573,3.573,0,0,1-.484-1.921,3.676,3.676,0,0,1,1.615-3.141,5.434,5.434,0,0,1,1.818-.79,9.574,9.574,0,0,1,2.314-.264q.5,0,1.109.033a12.67,12.67,0,0,1,1.306.144v-.177a1.43,1.43,0,0,0-.79-1.428,4.812,4.812,0,0,0-2.064-.372,6.842,6.842,0,0,0-1.055.088,10.915,10.915,0,0,0-1.157.241q-.583.154-1.132.352c-.365.13-.7.271-1.01.417l.4-3.141a8.891,8.891,0,0,1,1.926-.648,10.669,10.669,0,0,1,2.459-.274,8.707,8.707,0,0,1,2.2.263,4.81,4.81,0,0,1,1.745.835,3.856,3.856,0,0,1,1.157,1.516,5.647,5.647,0,0,1,.417,2.284v7.2a13.951,13.951,0,0,1-2.592.714A15.705,15.705,0,0,1,535.044,744.785Zm2.314-5.62a9.481,9.481,0,0,0-1.01-.187,8.065,8.065,0,0,0-1.076-.076,7.542,7.542,0,0,0-1.109.076,3.253,3.253,0,0,0-.911.265,1.626,1.626,0,0,0-.626.5,1.312,1.312,0,0,0,.54,1.944,4.81,4.81,0,0,0,1.922.331,7.8,7.8,0,0,0,1.157-.088,5.956,5.956,0,0,0,1.1-.263Z" transform="translate(-441.709 -610.77)" fill="#0e5781"/>
    </g>
  </g>
</svg>
