<svg xmlns="http://www.w3.org/2000/svg" width="69.362" height="56.898" viewBox="0 0 69.362 56.898"><defs><style>.a{fill:#0099b1;}</style></defs><g transform="translate(0 -46)"><path class="a" d="M68.007,56.838H63.943V52.774a1.355,1.355,0,0,0-1.355-1.355h-6.91A6.785,6.785,0,0,0,49.041,46H20.321a6.785,6.785,0,0,0-6.637,5.419H6.774a1.355,1.355,0,0,0-1.355,1.355v4.064H1.355A1.355,1.355,0,0,0,0,58.193V96.125A1.355,1.355,0,0,0,1.355,97.48H11.922a1.355,1.355,0,0,0,0-2.709H2.709V59.547H5.419V90.706a1.355,1.355,0,0,0,1.355,1.355H29.244a4.071,4.071,0,0,1,3.831,2.709H24.114a1.355,1.355,0,0,0,0,2.709H45.891a9.485,9.485,0,0,0,17.138,0h4.978a1.355,1.355,0,0,0,1.355-1.355V58.193A1.355,1.355,0,0,0,68.007,56.838ZM54.46,83.932a1.356,1.356,0,0,1,1.355,1.355v1.355H53.105V85.287A1.356,1.356,0,0,1,54.46,83.932ZM50.4,85.287v1.355H47.686V82.578a4.069,4.069,0,0,1,4.064-4.064h1.355v2.942A4.071,4.071,0,0,0,50.4,85.287Zm-17.07,5.435a6.739,6.739,0,0,0-4.082-1.371H8.128V54.128H29.262a4.069,4.069,0,0,1,4.064,4.064Zm1.353-36.592a6.768,6.768,0,0,0-5.417-2.712H16.49a4.071,4.071,0,0,1,3.831-2.709h28.72a4.071,4.071,0,0,1,3.831,2.709H40.082A6.744,6.744,0,0,0,34.679,54.131ZM36.252,94.77a4.087,4.087,0,0,1,3.83-2.709h4.895v1.355a9.574,9.574,0,0,0,.1,1.355Zm8.725-12.193v6.774H40.082A6.744,6.744,0,0,0,36.036,90.7V58.193a4.06,4.06,0,0,1,4.047-4.064H53.105v8.128H40.1a1.355,1.355,0,1,0,0,2.709H53.105v2.709H40.1a1.355,1.355,0,1,0,0,2.709H53.105V75.8H51.751A6.781,6.781,0,0,0,44.977,82.578ZM61.234,93.415a6.774,6.774,0,0,1-13.547,0V89.351H61.234Zm0-6.774H58.524V85.287a4.071,4.071,0,0,0-2.709-3.831V78.513h1.355a4.069,4.069,0,0,1,4.064,4.064Zm.011-9.479A6.762,6.762,0,0,0,57.169,75.8H55.815V70.385h1.355a1.355,1.355,0,1,0,0-2.709H55.815V64.966h1.355a1.355,1.355,0,0,0,0-2.709H55.815v-8.13h5.431ZM66.652,94.77H63.845a9.554,9.554,0,0,0,.1-1.355V59.547h2.709Z"/><path class="a" d="M81.355,248.709h8.128a1.355,1.355,0,1,0,0-2.709H81.355a1.355,1.355,0,0,0,0,2.709Z" transform="translate(-69.162 -172.905)"/><path class="a" d="M287.355,128.709H296.3a1.355,1.355,0,1,0,0-2.709h-8.941a1.355,1.355,0,1,0,0,2.709Z" transform="translate(-247.255 -69.162)"/><path class="a" d="M98.424,286H81.355a1.355,1.355,0,1,0,0,2.709h17.07a1.355,1.355,0,1,0,0-2.709Z" transform="translate(-69.162 -207.487)"/><path class="a" d="M98.424,326H81.355a1.355,1.355,0,1,0,0,2.709h17.07a1.355,1.355,0,1,0,0-2.709Z" transform="translate(-69.162 -242.068)"/><path class="a" d="M98.424,126H81.355A1.355,1.355,0,0,0,80,127.355v10.838a1.355,1.355,0,0,0,1.355,1.355h17.07a1.355,1.355,0,0,0,1.355-1.355V127.355A1.355,1.355,0,0,0,98.424,126ZM97.07,136.838H82.709v-8.128H97.07Z" transform="translate(-69.162 -69.162)"/><circle class="a" cx="1" cy="1" r="1" transform="translate(17 95)"/></g></svg>