<svg xmlns="http://www.w3.org/2000/svg" width="50.281" height="61.294" viewBox="0 0 50.281 61.294"><defs><style>.a{fill:#0099b1;}</style></defs><g transform="translate(-46 0)"><path class="a" d="M66.352,30.169H51.986a1.2,1.2,0,0,0-1.2,1.2v3.591H47.2a1.2,1.2,0,0,0-1.2,1.2V60.1a1.2,1.2,0,0,0,1.2,1.2h6.584a1.2,1.2,0,0,0,0-2.394H48.394V37.351h2.394V55.309a1.2,1.2,0,0,0,1.2,1.2h14.35A3.6,3.6,0,0,1,69.722,58.9H64.556a1.2,1.2,0,1,0,0,2.394H95.083a1.2,1.2,0,0,0,1.2-1.2V36.154a1.2,1.2,0,0,0-1.2-1.2H91.492V31.366a1.2,1.2,0,0,0-1.2-1.2H75.929a5.955,5.955,0,0,0-3.591,1.2v-2.62l4.087-4.087h4.293a8.39,8.39,0,0,0,8.38-8.38,1.2,1.2,0,0,0-1.2-1.2H83.112a8.39,8.39,0,0,0-8.363,7.867l-2.412,2.412V16.674A8.392,8.392,0,0,0,79.52,8.38V3.592a1.2,1.2,0,0,0-1.2-1.2,8.377,8.377,0,0,0-3.375.709A16.277,16.277,0,0,0,71.808.2a1.2,1.2,0,0,0-1.335,0,16.281,16.281,0,0,0-3.141,2.9,8.378,8.378,0,0,0-3.375-.709,1.2,1.2,0,0,0-1.2,1.2V8.38a8.392,8.392,0,0,0,7.183,8.293v8.689l-2.412-2.412a8.39,8.39,0,0,0-8.363-7.867H54.38a1.2,1.2,0,0,0-1.2,1.2,8.39,8.39,0,0,0,8.38,8.38h4.293l4.087,4.087v2.62a5.955,5.955,0,0,0-3.591-1.2Zm3.591,25.155a5.955,5.955,0,0,0-3.607-1.212H53.183V32.563H66.352a3.6,3.6,0,0,1,3.591,3.591ZM83.112,17.477h3.471a6,6,0,0,1-5.866,4.789H77.246A6,6,0,0,1,83.112,17.477Zm8.38,37.831V37.351h2.394V58.9H72.528a3.612,3.612,0,0,1,3.385-2.394H90.295A1.2,1.2,0,0,0,91.492,55.309ZM75.929,32.563H89.1V54.112H75.913a5.96,5.96,0,0,0-3.576,1.2V36.154a3.6,3.6,0,0,1,3.591-3.591Zm1.2-27.654V8.38a6,6,0,0,1-4.789,5.866V10.775a5.973,5.973,0,0,1,4.789-5.865ZM71.14,2.7A14.29,14.29,0,0,1,72.9,4.386,8.324,8.324,0,0,0,71.14,6.442a8.323,8.323,0,0,0-1.757-2.056A14.29,14.29,0,0,1,71.14,2.7ZM65.154,8.38V4.909a5.973,5.973,0,0,1,4.789,5.865v3.471A6,6,0,0,1,65.154,8.38ZM61.563,22.267A6,6,0,0,1,55.7,17.479h3.471a6,6,0,0,1,5.866,4.789Z" transform="translate(0 0)"/><path class="a" d="M127.327,294.394H132.1a1.2,1.2,0,1,0,0-2.394h-4.773a1.2,1.2,0,1,0,0,2.394Z" transform="translate(-70.537 -257.043)"/><path class="a" d="M136.889,332h-9.562a1.2,1.2,0,0,0,0,2.394h9.562a1.2,1.2,0,0,0,0-2.394Z" transform="translate(-70.537 -292.254)"/><path class="a" d="M136.889,372h-9.562a1.2,1.2,0,0,0,0,2.394h9.562a1.2,1.2,0,1,0,0-2.394Z" transform="translate(-70.537 -327.466)"/><path class="a" d="M136.889,412h-9.562a1.2,1.2,0,0,0,0,2.394h9.562a1.2,1.2,0,1,0,0-2.394Z" transform="translate(-70.537 -362.677)"/><path class="a" d="M287.2,294.394h4.789a1.2,1.2,0,1,0,0-2.394H287.2a1.2,1.2,0,1,0,0,2.394Z" transform="translate(-211.268 -257.043)"/><path class="a" d="M287.2,334.394h9.577a1.2,1.2,0,1,0,0-2.394H287.2a1.2,1.2,0,1,0,0,2.394Z" transform="translate(-211.268 -292.254)"/><path class="a" d="M287.2,374.394h9.577a1.2,1.2,0,1,0,0-2.394H287.2a1.2,1.2,0,1,0,0,2.394Z" transform="translate(-211.268 -327.466)"/><path class="a" d="M287.2,414.394h9.577a1.2,1.2,0,1,0,0-2.394H287.2a1.2,1.2,0,1,0,0,2.394Z" transform="translate(-211.268 -362.677)"/><circle class="a" cx="1.332" cy="1.332" r="1.332" transform="translate(57.54 58.586)"/></g></svg>