<svg xmlns="http://www.w3.org/2000/svg" width="57.195" height="51.386" viewBox="0 0 57.195 51.386"><defs><style>.a{fill:#0099b1;}</style></defs><g transform="translate(0 0)"><path class="a" d="M56.078,34.937H52.5V31.585a1.117,1.117,0,0,0-1.117-1.117H47.811V27.117A1.117,1.117,0,0,0,46.694,26a39.842,39.842,0,0,0-18.36,4.468H5.585a1.117,1.117,0,0,0-1.117,1.117v3.351H1.117A1.117,1.117,0,0,0,0,36.054V71.8a1.117,1.117,0,0,0,1.117,1.117H7.6a1.117,1.117,0,0,0,0-2.234H2.234V37.171H4.468V67.332a1.117,1.117,0,0,0,1.117,1.117H38.874v2.234H33.066A1.117,1.117,0,0,0,31.949,71.8c0,.039-.12.3-.691.581a6.865,6.865,0,0,1-5.32,0c-.571-.286-.691-.542-.691-.581a1.117,1.117,0,0,0-1.117-1.117H17.65a1.117,1.117,0,0,0,0,2.234h5.656c.733,1.328,2.766,2.234,5.291,2.234s4.558-.906,5.291-2.234h4.986v3.351a1.117,1.117,0,0,0,1.731.933l2.776-1.825,2.687,1.817a1.117,1.117,0,0,0,1.743-.925V72.918h8.266A1.117,1.117,0,0,0,57.195,71.8V36.054a1.117,1.117,0,0,0-1.117-1.117ZM27.48,66.215H6.7V32.7H27.48Zm2.234-33.939a38.2,38.2,0,0,1,15.863-4.025V61.762a39.651,39.651,0,0,0-15.863,3.771ZM45.577,74.165l-1.562-1.056a1.117,1.117,0,0,0-1.239-.008l-1.667,1.1V68.449h4.468ZM33.9,66.215a38.34,38.34,0,0,1,12.793-2.234,1.117,1.117,0,0,0,1.117-1.117V32.7h2.458V66.215Zm21.06,4.468H47.811V68.449h3.575A1.117,1.117,0,0,0,52.5,67.332V37.171H54.96Z" transform="translate(0 -26)"/><path class="a" d="M81.117,128.234h9.607a1.117,1.117,0,0,0,0-2.234H81.117a1.117,1.117,0,0,0,0,2.234Z" transform="translate(-71.063 -114.829)"/><path class="a" d="M81.117,168.234H95.192a1.117,1.117,0,0,0,0-2.234H81.117a1.117,1.117,0,0,0,0,2.234Z" transform="translate(-71.063 -150.361)"/><path class="a" d="M81.117,208.234H95.192a1.117,1.117,0,0,0,0-2.234H81.117a1.117,1.117,0,0,0,0,2.234Z" transform="translate(-71.063 -185.892)"/><path class="a" d="M81.117,248.234H95.192a1.117,1.117,0,1,0,0-2.234H81.117a1.117,1.117,0,1,0,0,2.234Z" transform="translate(-71.063 -221.424)"/><path class="a" d="M81.117,288.234H95.192a1.117,1.117,0,0,0,0-2.234H81.117a1.117,1.117,0,0,0,0,2.234Z" transform="translate(-71.063 -256.956)"/><path class="a" d="M81.117,328.234H95.192a1.117,1.117,0,1,0,0-2.234H81.117a1.117,1.117,0,1,0,0,2.234Z" transform="translate(-71.063 -292.487)"/><circle class="a" cx="1.5" cy="1.5" r="1.5" transform="translate(11 44.286)"/></g></svg>