<svg xmlns="http://www.w3.org/2000/svg" width="57.195" height="57.195" viewBox="0 0 57.195 57.195"><defs><style>.a{fill:#0099b1;}</style></defs><g transform="translate(0)"><circle class="a" cx="1.5" cy="1.5" r="1.5" transform="translate(27 47.19)"/><path class="a" d="M105.546,70.913l-17.873-7.82a1.117,1.117,0,0,0-.9,0L68.911,70.909a1.133,1.133,0,0,0-.677,1.027v6.895A3.357,3.357,0,0,0,66,81.99v4.468a1.117,1.117,0,0,0,1.117,1.117h4.468A1.117,1.117,0,0,0,72.7,86.458V81.99a3.357,3.357,0,0,0-2.234-3.159V73.644l6.7,2.932v7.648a1.117,1.117,0,0,0,.664,1.021c.214.1,5.3,2.33,9.39,2.33s9.175-2.235,9.39-2.33a1.117,1.117,0,0,0,.664-1.021V76.577l8.267-3.617a1.117,1.117,0,0,0,0-2.047ZM70.468,85.341H68.234V81.99a1.117,1.117,0,0,1,2.234,0Zm24.576-1.863a24.335,24.335,0,0,1-7.82,1.863,24.393,24.393,0,0,1-7.82-1.864V77.554l7.372,3.225a1.117,1.117,0,0,0,.9,0l7.372-3.225Zm-7.82-4.942-15.086-6.6,15.086-6.6,15.086,6.6-15.086,6.6Z" transform="translate(-58.627 -55.962)"/><path class="a" d="M376.724,203h-9.607a1.117,1.117,0,1,0,0,2.234h9.607a1.117,1.117,0,1,0,0-2.234Z" transform="translate(-325.115 -180.323)"/><path class="a" d="M376.724,243h-9.607a1.117,1.117,0,1,0,0,2.234h9.607a1.117,1.117,0,1,0,0-2.234Z" transform="translate(-325.115 -215.855)"/><ellipse class="a" cx="1.5" cy="1" rx="1.5" ry="1" transform="translate(27 0.19)"/><path class="a" d="M56.078,0H33.624a1.117,1.117,0,0,0,0,2.234H54.96V36.417H2.234V2.234H23.57A1.117,1.117,0,0,0,23.57,0H1.117A1.117,1.117,0,0,0,0,1.117v43.12a1.117,1.117,0,0,0,1.117,1.117H22.781l-1.813,9.607H17.426a1.117,1.117,0,0,0,0,2.234H39.768a1.117,1.117,0,0,0,0-2.234H36.226l-1.813-9.607H56.078a1.117,1.117,0,0,0,1.117-1.117V1.117A1.117,1.117,0,0,0,56.078,0ZM23.242,54.961l1.813-9.607H32.14l1.813,9.607ZM54.96,43.12H2.234V38.651H54.96Z" transform="translate(0)"/></g></svg>