<svg xmlns="http://www.w3.org/2000/svg" width="51.386" height="57.195" viewBox="0 0 51.386 57.195"><defs><style>.a{fill:#0099b1;}</style></defs><path class="a" d="M26,44.907v4.468a5.592,5.592,0,0,0,5.585,5.585h3.351v1.117a1.117,1.117,0,0,0,1.731.933l2.776-1.825L42.131,57a1.117,1.117,0,0,0,1.743-.925V54.961h32.4a1.117,1.117,0,1,0,0-2.234H75.152V41.556h1.117a1.117,1.117,0,1,0,0-2.234H63.981a4.473,4.473,0,0,0-4.468-4.468V31.5A1.117,1.117,0,0,0,58.4,30.385H55.044V24.625a10.638,10.638,0,0,0,6.141-6.439,7.828,7.828,0,0,0,7.264-7.8V3.351a1.117,1.117,0,0,0-1.117-1.117H63.821l.146-.946A1.117,1.117,0,0,0,62.864,0H56.72a1.117,1.117,0,1,0,0,2.233h4.84c0,.017-2.166,14.081-2.294,14.583a8.081,8.081,0,0,1-7.574,6.2,8.087,8.087,0,0,1-7.574-6.2c-.136-.535-2.291-14.567-2.294-14.582h4.84a1.117,1.117,0,0,0,0-2.234H40.522a1.117,1.117,0,0,0-1.1,1.288l.146.946H36.054a1.117,1.117,0,0,0-1.117,1.117v7.038a7.828,7.828,0,0,0,7.264,7.8,10.638,10.638,0,0,0,6.141,6.439v5.759H44.99A1.117,1.117,0,0,0,43.873,31.5v3.351A4.473,4.473,0,0,0,39.4,39.321h-7.82A5.592,5.592,0,0,0,26,44.907ZM63.475,4.468h2.74v5.921a5.594,5.594,0,0,1-4.5,5.479Zm-26.3,5.921V4.468h2.74l1.765,11.4A5.594,5.594,0,0,1,37.171,10.389Zm4.468,43.585-1.562-1.056a1.117,1.117,0,0,0-1.239-.008l-1.667,1.1V50.492h4.468Zm31.278-1.247H43.873V50.492H72.917ZM50.576,25.178a9.161,9.161,0,0,0,2.234,0v5.207H50.576Zm-4.468,7.441H57.278v2.234H46.107Zm-2.234,4.468H59.512a2.237,2.237,0,0,1,2.234,2.234H41.639A2.237,2.237,0,0,1,43.873,37.087Zm29.044,4.468V43.79H31.585a1.117,1.117,0,0,0,0,2.234H72.917v2.234H31.585a1.117,1.117,0,1,0,0,2.234h3.351v2.234H31.585a3.355,3.355,0,0,1-3.351-3.351V44.907a3.355,3.355,0,0,1,3.351-3.351Z" transform="translate(-26 0)"/><path class="a" d="M208.177,63.789a1.117,1.117,0,0,0-.619,1.906l1.78,1.735-.42,2.45a1.117,1.117,0,0,0,1.621,1.178l2.2-1.156,2.2,1.156a1.117,1.117,0,0,0,1.621-1.177l-.419-2.45,1.779-1.735a1.117,1.117,0,0,0-.62-1.905l-2.459-.357-1.1-2.228a1.117,1.117,0,0,0-2,0l-1.1,2.228Zm3.362,1.77a1.117,1.117,0,0,0,.841-.611l.358-.725.358.725a1.117,1.117,0,0,0,.841.611l.8.116-.579.565a1.117,1.117,0,0,0-.321.988l.137.8-.716-.377a1.117,1.117,0,0,0-1.04,0l-.715.376.137-.8a1.117,1.117,0,0,0-.321-.989l-.579-.564Z" transform="translate(-186.976 -53.814)"/><ellipse class="a" cx="1.229" cy="0.819" rx="1.229" ry="0.819" transform="translate(24.138 0.647)"/></svg>