<svg xmlns="http://www.w3.org/2000/svg" width="57.195" height="57.195" viewBox="0 0 57.195 57.195"><defs><style>.a{fill:#0099b1;}</style></defs><g transform="translate(0)"><path class="a" d="M56.079,5.139H52.727V1.117A1.117,1.117,0,0,0,51.61,0H5.586A1.117,1.117,0,0,0,4.469,1.117V5.139H1.118A1.117,1.117,0,0,0,0,6.256V42A1.117,1.117,0,0,0,1.118,43.12H7.6a1.117,1.117,0,0,0,0-2.234H2.235V7.373H4.469V37.534A1.116,1.116,0,0,0,5.586,38.65h22.1a3.341,3.341,0,0,0,.973,2.659l1.619,1.619a7.125,7.125,0,0,1-1.682.192,6.2,6.2,0,0,1-2.66-.536c-.571-.286-.691-.542-.691-.581a1.117,1.117,0,0,0-1.117-1.117H17.651a1.117,1.117,0,0,0,0,2.234h5.656c.733,1.328,2.766,2.234,5.291,2.234a8.544,8.544,0,0,0,3.44-.669l4.983,4.983a7.87,7.87,0,0,0,3.057,1.89l2.988,1,3.669,3.659a3.35,3.35,0,0,0,4.74,0l4.739-4.739a3.35,3.35,0,0,0,0-4.737l-3.49-3.519v-.1h3.351A1.117,1.117,0,0,0,57.2,42V6.256a1.117,1.117,0,0,0-1.117-1.117Zm-28.6,31.278H6.7V2.234H27.481ZM29.715,2.234H50.493V34.709c-.222-.23-12.178-12.184-12.353-12.359a3.352,3.352,0,1,0-4.74,4.74L35.906,29.6A3.343,3.343,0,0,0,34,32.435a3.344,3.344,0,0,0-3.157,3.16,3.358,3.358,0,0,0-1.131.263V2.234ZM38.14,33.41a3.352,3.352,0,0,0-.656.925l-.925-.925a1.117,1.117,0,0,1,1.567-1.593l.8.8Zm0,6.319a1.117,1.117,0,0,1-1.58,0L33.4,36.569a1.117,1.117,0,0,1,1.579-1.579h0l3.16,3.159a1.119,1.119,0,0,1,0,1.58ZM34.98,25.511a1.118,1.118,0,0,1,1.58-1.581l6.318,6.319a5.522,5.522,0,0,0-2.291.869Zm0,17.377a1.118,1.118,0,0,1-1.579,0l-3.16-3.16a1.109,1.109,0,0,1-.08-1.489l.013-.017a1.117,1.117,0,0,1,1.646-.075l3.159,3.16a1.118,1.118,0,0,1,0,1.579Zm19.654,5.426a1.117,1.117,0,0,1,0,1.58L49.9,54.633a1.117,1.117,0,0,1-1.581,0l-3.856-3.846a1.117,1.117,0,0,0-.436-.269l-3.237-1.079a5.621,5.621,0,0,1-2.184-1.35l-2.966-2.966a3.342,3.342,0,0,0,1.9-2.837,3.347,3.347,0,0,0,3.16-3.16,3.372,3.372,0,0,0,.552-.076,5.567,5.567,0,0,0,1.632,3.839,1.117,1.117,0,1,0,1.58-1.58,3.355,3.355,0,0,1,0-4.74,1.117,1.117,0,0,0-1.58-1.58l0,0L41.3,36.569a1.117,1.117,0,0,1-1.579-1.579l1.58-1.58a3.348,3.348,0,0,1,4.739,0l2.776,2.776a5.647,5.647,0,0,1,1.678,3.949v3.544a1.117,1.117,0,0,0,.324.787Zm.328-7.429H52.727V7.373h2.234Z" transform="translate(-0.001)"/><path class="a" d="M81.118,68.234h9.607a1.117,1.117,0,0,0,0-2.234H81.118a1.117,1.117,0,0,0,0,2.234Z" transform="translate(-71.064 -58.627)"/><path class="a" d="M81.118,108.234H95.193a1.117,1.117,0,0,0,0-2.234H81.118a1.117,1.117,0,0,0,0,2.234Z" transform="translate(-71.064 -94.159)"/><path class="a" d="M81.118,148.234H95.193a1.117,1.117,0,0,0,0-2.234H81.118a1.117,1.117,0,0,0,0,2.234Z" transform="translate(-71.064 -129.691)"/><path class="a" d="M287.118,68.234h9.607a1.117,1.117,0,0,0,0-2.234h-9.607a1.117,1.117,0,0,0,0,2.234Z" transform="translate(-254.052 -58.627)"/><path class="a" d="M287.118,108.234h14.075a1.117,1.117,0,1,0,0-2.234H287.118a1.117,1.117,0,0,0,0,2.234Z" transform="translate(-254.052 -94.159)"/><path class="a" d="M287.118,148.234h14.075a1.117,1.117,0,1,0,0-2.234H287.118a1.117,1.117,0,0,0,0,2.234Z" transform="translate(-254.052 -129.691)"/><path class="a" d="M81.118,188.234H95.193a1.117,1.117,0,1,0,0-2.234H81.118a1.117,1.117,0,0,0,0,2.234Z" transform="translate(-71.064 -165.222)"/><path class="a" d="M81.118,228.234H95.193a1.117,1.117,0,1,0,0-2.234H81.118a1.117,1.117,0,0,0,0,2.234Z" transform="translate(-71.064 -200.754)"/><path class="a" d="M81.118,268.234H95.193a1.117,1.117,0,0,0,0-2.234H81.118a1.117,1.117,0,0,0,0,2.234Z" transform="translate(-71.064 -236.286)"/><ellipse class="a" cx="1.5" cy="1" rx="1.5" ry="1" transform="translate(11 41.19)"/></g></svg>